<svg height="480pt" viewBox="0 0 480 480" width="480pt" xmlns="http://www.w3.org/2000/svg"><path d="m80 344v64c0 13.253906 10.746094 24 24 24h24v40c0 4.417969 3.582031 8 8 8h56c4.417969 0 8-3.582031 8-8v-40h80v40c0 4.417969 3.582031 8 8 8h56c4.417969 0 8-3.582031 8-8v-40h24c13.253906 0 24-10.746094 24-24v-64c-.042969-10.132812-6.445312-19.148438-16-22.527344v-17.472656h8c4.417969 0 8-3.582031 8-8s-3.582031-8-8-8h-16c-4.417969 0-8 3.582031-8 8v24h-16.9375l-15.125-120.992188c-.5-4.003906-3.902344-7.007812-7.9375-7.007812h-176c-4.035156 0-7.4375 3.003906-7.9375 7.007812l-15.125 120.992188h-16.9375v-24c0-4.417969-3.582031-8-8-8h-16c-4.417969 0-8 3.582031-8 8s3.582031 8 8 8h8v17.472656c-9.554688 3.378906-15.957031 12.394532-16 22.527344zm104 120h-40v-32h40zm152 0h-40v-32h40zm48-56c0 4.417969-3.582031 8-8 8h-272c-4.417969 0-8-3.582031-8-8v-64c0-4.417969 3.582031-8 8-8h272c4.417969 0 8 3.582031 8 8zm-224.9375-200h161.875l14 112h-189.875zm0 0"/><path d="m304 224h-128c-4.035156 0-7.4375 3.003906-7.9375 7.007812l-8 64c-.28125 2.277344.421875 4.566407 1.941406 6.285157 1.519532 1.722656 3.703125 2.707031 5.996094 2.707031h144c2.292969 0 4.476562-.984375 5.996094-2.707031 1.519531-1.71875 2.222656-4.007813 1.941406-6.285157l-8-64c-.5-4.003906-3.902344-7.007812-7.9375-7.007812zm-126.9375 64 6-48h113.875l6 48zm0 0"/><path d="m152 352c-13.253906 0-24 10.746094-24 24s10.746094 24 24 24 24-10.746094 24-24-10.746094-24-24-24zm0 32c-4.417969 0-8-3.582031-8-8s3.582031-8 8-8 8 3.582031 8 8-3.582031 8-8 8zm0 0"/><path d="m328 352c-13.253906 0-24 10.746094-24 24s10.746094 24 24 24 24-10.746094 24-24-10.746094-24-24-24zm0 32c-4.417969 0-8-3.582031-8-8s3.582031-8 8-8 8 3.582031 8 8-3.582031 8-8 8zm0 0"/><path d="m280 352h-80c-4.417969 0-8 3.582031-8 8s3.582031 8 8 8h80c4.417969 0 8-3.582031 8-8s-3.582031-8-8-8zm0 0"/><path d="m280 384h-80c-4.417969 0-8 3.582031-8 8s3.582031 8 8 8h80c4.417969 0 8-3.582031 8-8s-3.582031-8-8-8zm0 0"/><path d="m447.519531 5.265625c-1.148437-3.164063-4.15625-5.265625-7.519531-5.265625h-400c-3.363281 0-6.371094 2.101562-7.519531 5.265625l-32 88c-.316407.875-.47656275 1.800781-.480469 2.734375v376c0 4.417969 3.582031 8 8 8h48c4.417969 0 8-3.582031 8-8v-312h352v312c0 4.417969 3.582031 8 8 8h48c4.417969 0 8-3.582031 8-8v-376c-.003906-.933594-.164062-1.859375-.480469-2.734375zm-31.519531 106.734375h-352v-16h352zm-352 32v-16h352v16zm400 320h-32v-376c0-4.417969-3.582031-8-8-8h-368c-4.417969 0-8 3.582031-8 8v376h-32v-366.59375l29.601562-81.40625h388.796876l29.601562 81.40625zm0 0"/></svg>