<?xml version="1.0" encoding="iso-8859-1"?>
<!-- Generator: Adobe Illustrator 19.0.0, SVG Export Plug-In . SVG Version: 6.00 Build 0)  -->
<svg version="1.1" id="Capa_1" xmlns="http://www.w3.org/2000/svg" xmlns:xlink="http://www.w3.org/1999/xlink" x="0px" y="0px"
	 viewBox="0 0 368 368" style="enable-background:new 0 0 368 368;" xml:space="preserve">
<g>
	<g>
		<path d="M368,104V88c0-30.872-25.12-56-56-56H56C25.12,32,0,57.128,0,88v200c0,8.824,7.176,16,16,16h32.808
			c3.72,18.232,19.872,32,39.192,32s35.472-13.768,39.192-32h113.616c3.72,18.232,19.872,32,39.192,32s35.472-13.768,39.192-32H352
			c8.824,0,16-7.176,16-16v-56c0-22.056-17.944-40-40-40h-24v-40c0-15.656-6.456-29.832-16.84-40H360
			C364.416,112,368,108.424,368,104z M88,320c-13.232,0-24-10.768-24-24s10.768-24,24-24s24,10.768,24,24S101.232,320,88,320z
			 M112,264.208c-6.704-5.08-14.96-8.208-24-8.208c-19.312,0-35.472,13.768-39.192,32H16v-80h96V264.208z M176,288h-48V160h48V288z
			 M280,320c-13.232,0-24-10.768-24-24s10.768-24,24-24s24,10.768,24,24S293.232,320,280,320z M352,96H248c-4.416,0-8,3.576-8,8
			s3.584,8,8,8c22.056,0,40,17.944,40,40v40h-56c-4.416,0-8,3.576-8,8s3.584,8,8,8h64h32c13.232,0,24,10.768,24,24v56h-32.808
			c-3.72-18.232-19.872-32-39.192-32s-35.472,13.768-39.192,32H192V152c0-4.424-3.584-8-8-8h-64c-4.416,0-8,3.576-8,8v40H16v-80h168
			c4.416,0,8-3.576,8-8s-3.584-8-8-8H16v-8c0-22.056,17.944-40,40-40h256c22.056,0,40,17.944,40,40V96z"/>
	</g>
</g>
<g>
</g>
<g>
</g>
<g>
</g>
<g>
</g>
<g>
</g>
<g>
</g>
<g>
</g>
<g>
</g>
<g>
</g>
<g>
</g>
<g>
</g>
<g>
</g>
<g>
</g>
<g>
</g>
<g>
</g>
</svg>
