<?xml version="1.0" encoding="iso-8859-1"?>
<!-- Generator: Adobe Illustrator 19.0.0, SVG Export Plug-In . SVG Version: 6.00 Build 0)  -->
<svg version="1.1" id="Capa_1" xmlns="http://www.w3.org/2000/svg" xmlns:xlink="http://www.w3.org/1999/xlink" x="0px" y="0px"
	 viewBox="0 0 512 512" style="enable-background:new 0 0 512 512;" xml:space="preserve">
<g>
	<g>
		<path d="M233.563,353.717c-3.583-2.07-8.172-0.849-10.248,2.736c-1.524,2.635-4.357,4.271-7.396,4.271
			c-4.705,0-8.532-3.827-8.532-8.532s3.827-8.532,8.532-8.532c4.143,0,7.5-3.357,7.5-7.5s-3.357-7.5-7.5-7.5
			c-12.976,0-23.532,10.557-23.532,23.532c0,12.975,10.557,23.532,23.532,23.532c8.374,0,16.183-4.506,20.38-11.76
			C238.373,360.38,237.147,355.792,233.563,353.717z"/>
	</g>
</g>
<g>
	<g>
		<path d="M73.238,353.717c-3.586-2.072-8.174-0.849-10.247,2.737c-1.523,2.634-4.357,4.271-7.395,4.271
			c-4.705,0-8.532-3.827-8.532-8.532s3.827-8.532,8.532-8.532c4.143,0,7.5-3.357,7.5-7.5s-3.357-7.5-7.5-7.5
			c-12.976,0-23.532,10.557-23.532,23.532c0,12.975,10.557,23.532,23.532,23.532c8.375,0,16.184-4.507,20.379-11.761
			C78.05,360.378,76.824,355.79,73.238,353.717z"/>
	</g>
</g>
<g>
	<g>
		<path d="M167.822,344.693h-64.129c-4.143,0-7.5,3.357-7.5,7.5s3.357,7.5,7.5,7.5h64.129c4.143,0,7.5-3.357,7.5-7.5
			S171.965,344.693,167.822,344.693z"/>
	</g>
</g>
<g>
	<g>
		<path d="M510.5,371.741c-2.484-3.313-7.184-3.985-10.5-1.5l-10.688,8.016c-10.733,8.05-23.672,12.982-37.009,14.216
			l-21.355-33.557c5.236-6.494,6.705-15.435,3.626-23.337c20.786-1.156,37.345-18.427,37.345-39.499v-17.193
			c0-11.662-5.105-22.671-14.008-30.203l-70.44-59.604c-11.038-9.34-24.179-15.739-38.153-18.756l-48.424-55.341
			c-5.991-6.847-14.645-10.773-23.742-10.773h-13.136c-2.6,0-5.014,1.346-6.38,3.557c-1.366,2.212-1.491,4.973-0.328,7.298
			l26.637,53.274h-3.897c-4.006,0-7.912,0.436-11.68,1.245l-10.385-10.385c-4.444-4.444-10.354-6.892-16.641-6.892h-25.424
			c-4.143,0-7.5,3.357-7.5,7.5s3.357,7.5,7.5,7.5h25.424c2.279,0,4.422,0.888,6.033,2.499l5.597,5.597
			c-16.999,9.521-28.522,27.702-28.522,48.533v2.123c-2.647-1.034-5.523-1.608-8.532-1.608H79.646c-0.285,0-0.517-0.231-0.517-0.516
			c0-12.976-10.557-23.532-23.532-23.532c-12.975,0-23.532,10.557-23.532,23.532v16.032c0,8.948,2.989,17.208,8.017,23.843v35.005
			C16.954,305.549,0,326.921,0,352.193c0,30.656,24.94,55.597,55.597,55.597h160.322c30.656,0,55.598-24.94,55.598-55.597
			c0-5.76-0.881-11.319-2.515-16.548h110.352l13.444,21.125c4.345,6.82,11.772,10.893,19.869,10.893
			c1.909,0,3.794-0.245,5.625-0.697l16.433,25.824H312.113c-4.143,0-7.5,3.357-7.5,7.5s3.357,7.5,7.5,7.5h133.602
			c18.845,0,37.523-6.227,52.597-17.532L509,382.241C512.313,379.756,512.985,375.056,510.5,371.741z M370.876,211.433
			c1.59-2.572,4.235-4.047,7.258-4.047h7.749l20.167,17.064h-27.916c-3.252,0-6.176-1.808-7.631-4.717
			C369.151,217.029,369.287,214.004,370.876,211.433z M276.151,119.209h1.001c4.772,0,9.312,2.06,12.453,5.65l38.044,43.479h-26.933
			L276.151,119.209z M55.596,215.403c4.705,0,8.532,3.827,8.532,8.532c0,8.556,6.961,15.516,15.517,15.516h136.273
			c4.705,0,8.532,3.827,8.532,8.532v8.016c0,4.705-3.827,8.532-8.532,8.532H71.629c-13.545,0-24.564-11.02-24.564-24.564v-16.032
			h-0.001C47.064,219.23,50.891,215.403,55.596,215.403z M215.919,392.789H55.597C33.212,392.789,15,374.577,15,352.193
			c0-22.384,18.212-40.597,40.597-40.597h160.322c22.386,0,40.598,18.212,40.598,40.597
			C256.517,374.578,238.305,392.789,215.919,392.789z M417.226,351.332c-1.364,0.87-2.94,1.33-4.559,1.33
			c-2.943,0-5.642-1.477-7.216-3.949l-20.375-32.014c-2.524-3.972-1.349-9.26,2.622-11.79c1.384-0.882,2.956-1.337,4.56-1.337
			c0.62,0,1.245,0.068,1.866,0.206c2.226,0.495,4.126,1.827,5.351,3.75l20.374,32.013
			C422.374,343.514,421.198,348.803,417.226,351.332z M412.128,299.473c-3.376-5.302-8.614-8.973-14.749-10.337
			c-6.143-1.366-12.441-0.256-17.741,3.124c-9.618,6.126-13.28,18.132-9.294,28.385H261.663
			c-10.042-14.515-26.797-24.049-45.744-24.049H55.597c-0.173,0-0.343,0.011-0.516,0.013v-20.718
			c5.039,2.33,10.642,3.64,16.548,3.64h144.29c7.035,0,13.354-3.107,17.67-8.016h22.409c4.143,0,7.5-3.357,7.5-7.5
			s-3.357-7.5-7.5-7.5h-16.547v-32.581c0-22.385,18.212-40.597,40.598-40.597h50.797c13.544,0,26.771,3.815,38.188,10.866
			c-4.45,1.857-8.277,5.07-10.918,9.343c-4.318,6.988-4.704,15.548-1.029,22.896c4.012,8.023,12.076,13.008,21.047,13.008h45.643
			l20.168,17.065h-155.88c-4.143,0-7.5,3.357-7.5,7.5s3.357,7.5,7.5,7.5h167.718c0.741,2.358,1.137,4.838,1.137,7.371v17.193
			c0,13.545-11.02,24.564-24.564,24.564h-6.752L412.128,299.473z"/>
	</g>
</g>
<g>
</g>
<g>
</g>
<g>
</g>
<g>
</g>
<g>
</g>
<g>
</g>
<g>
</g>
<g>
</g>
<g>
</g>
<g>
</g>
<g>
</g>
<g>
</g>
<g>
</g>
<g>
</g>
<g>
</g>
</svg>
