<?xml version="1.0"?>
<svg xmlns="http://www.w3.org/2000/svg" viewBox="0 0 64 64" width="512" height="512"><g id="Outline"><path d="M46.437,13.661a7.857,7.857,0,0,1,3.9,3.9,1,1,0,1,0,1.82-.827,9.848,9.848,0,0,0-4.894-4.9,1,1,0,1,0-.828,1.82Z"/><path d="M47.419,8.775a12.007,12.007,0,0,1,7.806,7.807,1,1,0,0,0,1.906-.605,14,14,0,0,0-9.109-9.108,1,1,0,0,0-.6,1.906Z"/><path d="M48.332,3.971a15.9,15.9,0,0,1,11.7,11.7,1,1,0,0,0,.971.762.969.969,0,0,0,.238-.029,1,1,0,0,0,.735-1.209A17.891,17.891,0,0,0,48.807,2.029a1,1,0,1,0-.475,1.942Z"/><path d="M59,46.311V37a5.006,5.006,0,0,0-5-5H46V24a1,1,0,0,0-1-1H44V21a2,2,0,0,1,2-2,1,1,0,0,0,0-2,4,4,0,0,0-4,4v2H41a1,1,0,0,0-1,1v8H35.735L31.349,17.965A2.992,2.992,0,0,0,31,12H7a3,3,0,0,0,0,6V35.642A15.975,15.975,0,0,0,2.267,39.13a1,1,0,1,0,1.466,1.359A14,14,0,0,1,7,37.89v2.383A11.989,11.989,0,1,0,25.3,54H44.059A9,9,0,1,0,59,46.311ZM32.7,29H19V18H29.265ZM6,15a1,1,0,0,1,1-1H31a1,1,0,0,1,0,2H7A1,1,0,0,1,6,15Zm11,3V34.292a15.686,15.686,0,0,0-8,.522V18Zm6,33h.949a9.952,9.952,0,0,1-2.211,5.324l-.667-.667a1,1,0,0,0-1.414,1.414l.667.667A9.952,9.952,0,0,1,15,59.949V59a1,1,0,0,0-2,0v.949a9.952,9.952,0,0,1-5.324-2.211l.667-.667a1,1,0,0,0-1.414-1.414l-.667.667A9.952,9.952,0,0,1,4.051,51H5a1,1,0,0,0,0-2H4.051a9.952,9.952,0,0,1,2.211-5.324l.667.667a1,1,0,1,0,1.414-1.414l-.667-.667A9.952,9.952,0,0,1,13,40.051V41a1,1,0,0,0,2,0v-.949a9.952,9.952,0,0,1,5.324,2.211l-.667.667a1,1,0,1,0,1.414,1.414l.667-.667A9.952,9.952,0,0,1,23.949,49H23a1,1,0,0,0,0,2Zm4.842,1H25.819A11.969,11.969,0,0,0,9,39.1V36.948A13.919,13.919,0,0,1,27.842,52ZM34,52H29.878A16.31,16.31,0,0,0,30,50c0-.338-.03-.668-.051-1H34Zm0-5H29.708a15.862,15.862,0,0,0-.886-3H34Zm0-5H27.835A16.065,16.065,0,0,0,19,34.811V31H33.327L34,33.152Zm8-17h2v7H42ZM36,52V34H54a3,3,0,0,1,2.816,2H55a3,3,0,0,0,0,6h2v2.95A8.975,8.975,0,0,0,44.059,52ZM57,38v2H55a1,1,0,0,1,0-2Zm1.589,19.2A.987.987,0,0,0,57.2,58.589a6.951,6.951,0,0,1-3.213,1.333.986.986,0,0,0-1.968,0A6.951,6.951,0,0,1,48.8,58.589.987.987,0,0,0,47.411,57.2a6.951,6.951,0,0,1-1.333-3.213.986.986,0,0,0,0-1.968A6.942,6.942,0,0,1,47.412,48.8.986.986,0,0,0,48.8,47.411a6.951,6.951,0,0,1,3.213-1.333.986.986,0,0,0,1.968,0A6.951,6.951,0,0,1,57.2,47.411.987.987,0,0,0,58.589,48.8a6.951,6.951,0,0,1,1.333,3.213.986.986,0,0,0,0,1.968A6.951,6.951,0,0,1,58.589,57.2Z"/><path d="M53,49a4,4,0,1,0,4,4A4,4,0,0,0,53,49Zm0,6a2,2,0,1,1,2-2A2,2,0,0,1,53,55Z"/><path d="M14,45a5,5,0,1,0,5,5A5.006,5.006,0,0,0,14,45Zm0,8a3,3,0,1,1,3-3A3,3,0,0,1,14,53Z"/><path d="M48,42a1,1,0,0,0,1-1V37a1,1,0,0,0-2,0v4A1,1,0,0,0,48,42Z"/><path d="M44,36a1,1,0,0,0-1,1v4a1,1,0,0,0,2,0V37A1,1,0,0,0,44,36Z"/><path d="M40,36a1,1,0,0,0-1,1v4a1,1,0,0,0,2,0V37A1,1,0,0,0,40,36Z"/></g></svg>
