<?xml version="1.0" encoding="iso-8859-1"?>
<!-- Generator: Adobe Illustrator 19.0.0, SVG Export Plug-In . SVG Version: 6.00 Build 0)  -->
<svg version="1.1" id="Capa_1" xmlns="http://www.w3.org/2000/svg" xmlns:xlink="http://www.w3.org/1999/xlink" x="0px" y="0px"
	 viewBox="0 0 480 480" style="enable-background:new 0 0 480 480;" xml:space="preserve">
<g>
	<g>
		<path d="M477.656,330.32L464,316.664v-68.688c0-4.418-3.582-8-8-8H336v-48h16v32h16v-40c0-4.418-3.582-8-8-8h-24v-40
			c0.001-3.032-1.712-5.805-4.424-7.16l-32-16c-1.111-0.554-2.335-0.841-3.576-0.84h-72v-56c0-4.418-3.582-8-8-8h-32
			c-4.418,0-8,3.582-8,8v136c-4.418,0-8,3.582-8,8v80c0,4.418,3.582,8,8,8v48H8c-4.418,0-8,3.582-8,8v48c0,4.418,3.582,8,8,8h24.8
			c4.354,21.599,25.394,35.579,46.993,31.225c12.369-2.493,22.829-10.691,28.207-22.105c9.391,19.932,33.163,28.478,53.095,19.087
			c11.414-5.378,19.611-15.838,22.105-28.207H200v8c0,4.418,3.582,8,8,8h80c4.418,0,8-3.582,8-8v-8h72.8
			c4.396,21.65,25.51,35.636,47.16,31.24c15.741-3.196,28.044-15.499,31.24-31.24H472c4.418,0,8-3.582,8-8v-56
			C480,333.854,479.156,331.82,477.656,330.32z M432,255.976h16v56h-16V255.976z M224,127.976h70.112L320,140.92v19.056h-96V127.976
			z M224,287.976c4.418,0,8-3.582,8-8v-80c0-4.418-3.582-8-8-8v-16h96v96h-24c-4.418,0-8,3.582-8,8v56h-64V287.976z M320,287.976v48
			h-16v-48H320z M192,63.976h16v56v72h-16V63.976z M184,207.976h32v64h-32V207.976z M208,287.976v48h-16v-48H208z M32.8,383.976H16
			v-32h54.977c-5.403,0.123-10.868,1.342-16.072,3.793C43.491,361.147,35.293,371.607,32.8,383.976z M72,415.976
			c-13.255,0-24-10.745-24-24s10.745-24,24-24s24,10.745,24,24S85.255,415.976,72,415.976z M108,374.856
			c-6.659-14.135-20.551-22.533-35.176-22.88h70.554c-2.369,0.045-4.766,0.29-7.171,0.775
			C123.838,355.245,113.378,363.442,108,374.856z M144,415.976c-13.255,0-24-10.745-24-24s10.745-24,24-24s24,10.745,24,24
			S157.255,415.976,144,415.976z M280,399.976h-64v-16h64V399.976z M336,383.976h-40v-8c0-4.418-3.582-8-8-8h-80
			c-4.418,0-8,3.582-8,8v8h-16.8c-3.762-18.663-19.984-31.626-38.258-32H336V383.976z M336,335.976v-80h80v56h-48
			c-2.122,0-4.156,0.844-5.656,2.344l-21.656,21.656H336z M408,415.976c-13.255,0-24-10.745-24-24s10.745-24,24-24s24,10.745,24,24
			S421.255,415.976,408,415.976z M464,383.976h-16.8c-4.396-21.65-25.51-35.636-47.16-31.24
			c-15.741,3.196-28.044,15.499-31.24,31.24h0H352v-36.688l19.312-19.312h81.376L464,339.288V383.976z"/>
	</g>
</g>
<g>
	<g>
		<path d="M296,191.976h-40c-4.418,0-8,3.582-8,8v40c0,4.418,3.582,8,8,8h40c4.418,0,8-3.582,8-8v-40
			C304,195.558,300.418,191.976,296,191.976z M288,231.976h-24v-24h24V231.976z"/>
	</g>
</g>
<g>
</g>
<g>
</g>
<g>
</g>
<g>
</g>
<g>
</g>
<g>
</g>
<g>
</g>
<g>
</g>
<g>
</g>
<g>
</g>
<g>
</g>
<g>
</g>
<g>
</g>
<g>
</g>
<g>
</g>
</svg>
